<?xml version="1.0" standalone="no"?>
<!DOCTYPE svg PUBLIC "-//W3C//DTD SVG 20010904//EN"
 "http://www.w3.org/TR/2001/REC-SVG-20010904/DTD/svg10.dtd">
<svg version="1.0" xmlns="http://www.w3.org/2000/svg"
 width="512.000000pt" height="512.000000pt" viewBox="0 0 512.000000 512.000000"
 preserveAspectRatio="xMidYMid meet">
<metadata>
Created by potrace 1.11, written by Peter Selinger 2001-2013
</metadata>
<g transform="translate(0.000000,512.000000) scale(0.100000,-0.100000)"
fill="#000000" stroke="none">
<path d="M4458 4148 c-48 -3 -96 -9 -107 -13 -12 -3 -33 -8 -48 -11 -52 -9
-98 -27 -243 -97 -80 -38 -210 -101 -290 -139 -80 -39 -190 -92 -245 -118
-195 -93 -506 -242 -760 -365 -88 -42 -201 -97 -251 -120 -50 -24 -156 -75
-235 -113 -79 -38 -191 -92 -249 -120 -58 -27 -172 -82 -255 -122 -82 -40
-199 -96 -260 -125 -60 -29 -162 -78 -226 -108 l-117 -56 -133 44 c-74 23
-249 80 -389 125 -140 45 -293 95 -340 110 l-85 27 -96 -47 c-126 -62 -122
-59 -107 -74 7 -7 42 -46 78 -87 182 -206 266 -297 409 -439 181 -180 276
-265 334 -300 38 -23 53 -25 167 -27 69 -1 150 2 180 7 30 5 73 11 95 14 50 7
93 15 125 22 14 3 39 8 55 11 58 9 305 72 427 108 243 73 462 158 667 259 63
31 117 56 122 56 4 0 6 -8 5 -17 -2 -10 -7 -49 -10 -88 -7 -71 -13 -125 -22
-205 -2 -25 -7 -65 -9 -90 -2 -25 -6 -63 -9 -85 -3 -22 -7 -69 -11 -105 -3
-36 -8 -81 -10 -100 -9 -76 -25 -228 -30 -277 -3 -29 -7 -77 -10 -105 -14
-129 -16 -155 -20 -189 -8 -82 -17 -166 -20 -189 -2 -14 -6 -56 -10 -95 -3
-38 -8 -86 -10 -105 -2 -19 -7 -64 -10 -100 -3 -36 -8 -73 -11 -82 -7 -22 13
-58 31 -58 8 0 94 38 191 85 97 47 179 85 183 85 15 0 82 64 97 92 8 16 24 55
34 86 18 57 113 328 165 472 14 41 28 80 29 85 2 6 6 17 9 25 3 8 19 53 35
100 17 47 54 150 82 230 28 80 53 152 55 160 2 8 18 53 35 100 18 47 35 96 40
110 6 21 58 170 247 706 l25 71 106 51 c59 28 193 92 297 142 105 51 279 135
389 187 308 147 374 192 472 318 63 81 88 143 89 222 0 65 -3 74 -31 110 -87
109 -346 172 -616 151z"/>
<path d="M1318 3927 c-114 -55 -209 -106 -212 -114 -9 -23 36 -58 279 -212
127 -80 244 -156 262 -168 17 -13 33 -23 36 -23 2 0 59 -36 126 -80 67 -44
125 -80 130 -80 9 0 63 25 451 212 96 46 212 102 258 123 45 22 82 42 82 45 0
3 -44 20 -98 39 -53 18 -302 106 -552 194 -329 116 -469 161 -505 162 -44 2
-73 -9 -257 -98z"/>
</g>
</svg>
